<?xml version="1.0" standalone="no"?><!DOCTYPE svg PUBLIC "-//W3C//DTD SVG 1.1//EN" "http://www.w3.org/Graphics/SVG/1.1/DTD/svg11.dtd"><svg t="1653554373928" class="icon" viewBox="0 0 1024 1024" version="1.1" xmlns="http://www.w3.org/2000/svg" p-id="4411" xmlns:xlink="http://www.w3.org/1999/xlink" width="200" height="200"><defs><style type="text/css">@font-face { font-family: feedback-iconfont; src: url("//at.alicdn.com/t/font_1031158_u69w8yhxdu.woff2?t=1630033759944") format("woff2"), url("//at.alicdn.com/t/font_1031158_u69w8yhxdu.woff?t=1630033759944") format("woff"), url("//at.alicdn.com/t/font_1031158_u69w8yhxdu.ttf?t=1630033759944") format("truetype"); }
</style></defs><path d="M840.192497 1024h-178.309309a64.604822 64.604822 0 0 1-64.604823-64.604822V646.06179H419.615104v311.395243a64.604822 64.604822 0 0 1-64.604822 64.604822H181.22331a64.604822 64.604822 0 0 1-64.604822-64.604822V525.250772H76.563498a58.14434 58.14434 0 0 1-58.790388-38.762893A64.604822 64.604822 0 0 1 31.340122 416.068622L470.652914 18.102917a64.604822 64.604822 0 0 1 89.800703 0l432.852309 396.673609a64.604822 64.604822 0 0 1-45.869424 109.828198h-44.577327v436.728598a64.604822 64.604822 0 0 1-62.666678 62.666678zM422.199297 585.979305h179.601406a64.604822 64.604822 0 0 1 64.604822 64.604822v313.333388h175.725117V465.168287h109.182149L515.876289 64.618389 76.563498 462.584094h107.890053v501.333421h178.955358v-310.749195a64.604822 64.604822 0 0 1 58.790388-67.189015z" p-id="4412"></path></svg>